<svg xmlns="http://www.w3.org/2000/svg" viewBox="0 0 1861.01 1861.01"><defs><style>.a,.e{fill:#fff;}.b{font-size:1285px;fill:#171717;letter-spacing:-0.01em;}.b,.e{font-family:Futura-Medium, Futura;font-weight:500;}.c{fill:#d35400;stroke:#d03c41;}.c,.d{stroke-miterlimit:10;stroke-width:180px;}.d{fill:none;stroke:#e83c41;}.e{font-size:138.73px;}</style></defs><circle class="a" cx="930.51" cy="930.51" r="833.71"/><text class="b" transform="translate(389.34 1425.58)">G</text><line class="c" x1="1492.65" y1="275.46" x2="390.57" y2="1515.98"/><circle class="d" cx="930.51" cy="930.51" r="840.51"/><text class="e" transform="translate(1720.07 929.26) rotate(94.09)">G</text><text class="e" transform="matrix(-0.17, 0.99, -0.99, -0.17, 1710.35, 1042.34)"> </text><text class="e" transform="translate(1705.13 1081.81) rotate(104.75)">A</text><text class="e" transform="matrix(-0.36, 0.93, -0.93, -0.36, 1679.37, 1177.58)">n</text><text class="e" transform="translate(1653.34 1245.65) rotate(116.36)">n</text><text class="e" transform="matrix(-0.5, 0.86, -0.86, -0.5, 1620.16, 1311.23)">i</text><text class="e" transform="translate(1604.75 1339.25) rotate(124.04)">h</text><text class="e" transform="matrix(-0.61, 0.79, -0.79, -0.61, 1563.12, 1399.79)">i</text><text class="e" transform="matrix(-0.65, 0.76, -0.76, -0.65, 1543.15, 1425.53)">l</text><text class="e" transform="matrix(-0.7, 0.72, -0.72, -0.7, 1523.27, 1450.52)">a</text><text class="e" transform="translate(1466.6 1507.58) rotate(138.47)">t</text><text class="e" transform="matrix(-0.78, 0.63, -0.63, -0.78, 1439.71, 1531.4)">i</text><text class="e" transform="translate(1415.56 1552.24) rotate(145.02)">o</text><text class="e" transform="translate(1349.9 1598.16) rotate(150.58)">n</text><text class="e" transform="matrix(-0.9, 0.43, -0.43, -0.9, 1285.79, 1633.75)"> </text><text class="e" transform="translate(1249.91 1651.6) rotate(159.04)">S</text><text class="e" transform="matrix(-0.97, 0.26, -0.26, -0.97, 1177.58, 1679.56)">q</text><text class="e" transform="translate(1099 1700.8) rotate(170.48)">u</text><text class="e" transform="matrix(-1, 0.07, -0.07, -1, 1027.7, 1713.1)">a</text><text class="e" transform="matrix(-1, -0.03, 0.03, -1, 948.04, 1718.82)">d</text><text class="e" transform="matrix(-0.99, -0.11, 0.11, -0.99, 867.74, 1715.76)"> </text><text class="e" transform="translate(827.38 1711.54) rotate(-170.99)"> </text><text class="e" transform="matrix(-0.98, -0.21, 0.21, -0.98, 787.28, 1705.24)"> </text><text class="e" transform="matrix(-0.97, -0.26, 0.26, -0.97, 747.56, 1696.87)"> </text><text class="e" transform="translate(708.32 1686.46) rotate(-162.08)"> </text><text class="e" transform="translate(669.69 1674.02) rotate(-159.1)"> </text><text class="e" transform="matrix(-0.91, -0.4, 0.4, -0.91, 631.76, 1659.6)"> </text><text class="e" transform="translate(594.62 1643.23) rotate(-153.16)"> </text><text class="e" transform="translate(558.39 1624.97) rotate(-150.21)"> </text><text class="e" transform="translate(523.13 1604.84) rotate(-147.25)"> </text><text class="e" transform="matrix(-0.81, -0.58, 0.58, -0.81, 488.96, 1582.93)"> </text><text class="e" transform="matrix(-0.78, -0.62, 0.62, -0.78, 455.96, 1559.29)"> </text><text class="e" transform="matrix(-0.75, -0.66, 0.66, -0.75, 424.2, 1533.98)"> </text><text class="e" transform="matrix(-0.71, -0.7, 0.7, -0.71, 393.8, 1507.09)"> </text><text class="e" transform="matrix(-0.68, -0.74, 0.74, -0.68, 364.8, 1478.67)"> </text><text class="e" transform="matrix(-0.64, -0.77, 0.77, -0.64, 337.29, 1448.78)"> </text><text class="e" transform="translate(311.37 1417.56) rotate(-126.68)"> </text><text class="e" transform="translate(287.07 1385.03) rotate(-123.73)"> </text><text class="e" transform="matrix(-0.51, -0.86, 0.86, -0.51, 264.47, 1351.29)"> </text><text class="e" transform="translate(243.66 1316.46) rotate(-117.82)"> </text><text class="e" transform="translate(224.65 1280.58) rotate(-114.86)"> </text><text class="e" transform="matrix(-0.37, -0.93, 0.93, -0.37, 207.54, 1243.77)"> </text><text class="e" transform="matrix(-0.32, -0.95, 0.95, -0.32, 192.37, 1206.16)"> </text><text class="e" transform="matrix(-0.27, -0.96, 0.96, -0.27, 179.15, 1167.79)"> </text><text class="e" transform="translate(167.95 1128.77) rotate(-102.97)"> </text><text class="e" transform="translate(158.79 1089.23) rotate(-100)"> </text><text class="e" transform="translate(151.68 1049.27) rotate(-97.04)"> </text><text class="e" transform="translate(146.65 1008.97) rotate(-94.1)"> </text><text class="e" transform="translate(143.69 968.45) rotate(-91.18)"> </text><text class="e" transform="matrix(0.03, -1, 1, 0.03, 142.8, 927.86)"> </text><text class="e" transform="translate(142.04 888.18) rotate(-82.76)">G</text><text class="e" transform="translate(157.97 775.82) rotate(-77.17)"> </text><text class="e" transform="translate(165.37 736.7) rotate(-72.07)">A</text><text class="e" transform="matrix(0.41, -0.91, 0.91, 0.41, 196.41, 642.54)">n</text><text class="e" transform="translate(226.19 575.98) rotate(-60.46)">n</text><text class="e" transform="translate(262.92 512.38) rotate(-56.63)">i</text><text class="e" transform="translate(279.88 485.22) rotate(-52.8)">h</text><text class="e" transform="translate(324.78 427.06) rotate(-48.99)">i</text><text class="e" transform="matrix(0.69, -0.73, 0.73, 0.69, 346.12, 402.45)">l</text><text class="e" transform="translate(367.34 378.6) rotate(-42.57)">a</text><text class="e" transform="matrix(0.78, -0.62, 0.62, 0.78, 427.06, 324.73)">t</text><text class="e" transform="translate(455.21 302.41) rotate(-35.91)">i</text><text class="e" transform="translate(480.48 282.93) rotate(-31.82)">o</text><text class="e" transform="matrix(0.9, -0.44, 0.44, 0.9, 548.54, 240.71)">n</text><text class="e" transform="matrix(0.93, -0.38, 0.38, 0.93, 614.54, 208.72)"> </text><text class="e" transform="translate(651.35 192.88) rotate(-17.78)">S</text><text class="e" transform="matrix(0.98, -0.21, 0.21, 0.98, 725.1, 169)">q</text><text class="e" transform="translate(804.76 152.15) rotate(-6.36)">u</text><text class="e" transform="translate(876.72 143.85) rotate(-0.93)">a</text><text class="e" transform="translate(956.48 142.41) rotate(4.85)">d</text></svg>
